<svg width="80" height="80" viewBox="0 0 80 80" fill="none" xmlns="http://www.w3.org/2000/svg">
<g clip-path="url(#clip0_23_111)">
<path d="M51.3478 3.24398e-05C50.7324 0.0246478 50.1385 0.135417 49.5201 0.289263L7.69237 10.48C2.74468 11.6923 -0.350703 16.6831 0.864682 21.6339L6.7293 45.5785C7.08468 47.0048 7.77663 48.3251 8.7472 49.429C9.71777 50.5329 10.9387 51.3881 12.3078 51.9231V46.1539C12.3078 37.6708 19.2093 30.7693 27.6924 30.7693H66.4431L60.6739 7.01849C60.1636 4.95394 58.9571 3.12849 57.2576 1.84998C55.5581 0.57146 53.4729 -0.0819134 51.3478 3.24398e-05ZM55.0955 13.2708L57.597 23.7508L47.2124 26.2493L44.6155 15.8646L55.0955 13.2708ZM27.6924 36.9231C22.597 36.9231 18.4616 41.0585 18.4616 46.1539V70.7693C18.4616 75.8646 22.597 80 27.6924 80H70.7693C75.8647 80 80.0001 75.8646 80.0001 70.7693V46.1539C80.0001 41.0585 75.8647 36.9231 70.7693 36.9231H27.6924ZM27.6924 41.8277H70.7693C73.1416 41.8277 75.0955 43.7816 75.0955 46.1539V49.2308H23.3662V46.1539C23.3662 43.7816 25.3201 41.8277 27.6924 41.8277ZM23.3662 58.4616H75.0955V70.7693C75.0955 73.1416 73.1416 75.0954 70.7693 75.0954H27.6924C26.547 75.089 25.4504 74.6311 24.6405 73.8212C23.8305 73.0113 23.3727 71.9146 23.3662 70.7693V58.4616Z" fill="#444444"/>
</g>
<defs>
<clipPath id="clip0_23_111">
<rect width="80" height="80" fill="white"/>
</clipPath>
</defs>
</svg>
