<svg width="60" height="60" viewBox="0 0 60 60" fill="none" xmlns="http://www.w3.org/2000/svg">
<path d="M32.6941 8.70003C32.4465 8.19764 32.0632 7.77458 31.5876 7.47874C31.1121 7.18291 30.5632 7.02612 30.0031 7.02612C29.443 7.02612 28.8941 7.18291 28.4185 7.47874C27.9429 7.77458 27.5596 8.19764 27.3121 8.70003L21.5221 20.43L8.57107 22.314C8.01697 22.3945 7.49644 22.6284 7.06838 22.9893C6.64032 23.3503 6.32181 23.8238 6.14887 24.3563C5.97594 24.8889 5.95549 25.4592 6.08983 26.0027C6.22418 26.5463 6.50796 27.0414 6.90907 27.432L16.2811 36.564L14.0671 49.464C13.9725 50.0157 14.0342 50.5829 14.2452 51.1014C14.4562 51.6198 14.808 52.0689 15.2609 52.3979C15.7137 52.7269 16.2496 52.9226 16.8079 52.9629C17.3662 53.0032 17.9246 52.8865 18.4201 52.626L27.5701 47.814C26.7216 44.6879 26.8121 41.3813 27.8302 38.3062C28.8482 35.2312 30.7489 32.5238 33.2952 30.5216C35.8415 28.5195 38.9208 27.3111 42.1492 27.0471C45.3776 26.7831 48.6123 27.4751 51.4501 29.037L53.0971 27.432C53.4982 27.0414 53.782 26.5463 53.9163 26.0027C54.0506 25.4592 54.0302 24.8889 53.8573 24.3563C53.6843 23.8238 53.3658 23.3503 52.9378 22.9893C52.5097 22.6284 51.9892 22.3945 51.4351 22.314L38.4841 20.433L32.6941 8.70003ZM57.0001 43.5C57.0001 47.0805 55.5777 50.5142 53.046 53.046C50.5143 55.5777 47.0805 57 43.5001 57C39.9196 57 36.4859 55.5777 33.9541 53.046C31.4224 50.5142 30.0001 47.0805 30.0001 43.5C30.0001 39.9196 31.4224 36.4858 33.9541 33.9541C36.4859 31.4223 39.9196 30 43.5001 30C47.0805 30 50.5143 31.4223 53.046 33.9541C55.5777 36.4858 57.0001 39.9196 57.0001 43.5ZM50.5621 37.938C50.4227 37.7983 50.2572 37.6875 50.075 37.6119C49.8927 37.5363 49.6974 37.4974 49.5001 37.4974C49.3028 37.4974 49.1074 37.5363 48.9252 37.6119C48.7429 37.6875 48.5774 37.7983 48.4381 37.938L40.5001 45.879L38.5621 43.938C38.2804 43.6564 37.8984 43.4981 37.5001 43.4981C37.1017 43.4981 36.7197 43.6564 36.4381 43.938C36.1564 44.2197 35.9982 44.6017 35.9982 45C35.9982 45.3984 36.1564 45.7804 36.4381 46.062L39.4381 49.062C39.5774 49.2017 39.7429 49.3126 39.9252 49.3882C40.1074 49.4638 40.3028 49.5027 40.5001 49.5027C40.6974 49.5027 40.8927 49.4638 41.075 49.3882C41.2572 49.3126 41.4227 49.2017 41.5621 49.062L50.5621 40.062C50.7018 39.9227 50.8126 39.7572 50.8882 39.5749C50.9638 39.3927 51.0028 39.1973 51.0028 39C51.0028 38.8027 50.9638 38.6074 50.8882 38.4251C50.8126 38.2429 50.7018 38.0774 50.5621 37.938Z" fill="#444444"/>
</svg>
