<svg width="80" height="80" viewBox="0 0 80 80" fill="none" xmlns="http://www.w3.org/2000/svg">
<path d="M76.6666 33.3333C76.6666 31.5652 75.9642 29.8695 74.714 28.6193C73.4637 27.369 71.768 26.6666 69.9999 26.6666H48.9333L52.1333 11.4333C52.1999 11.1 52.2333 10.7333 52.2333 10.3666C52.2333 8.99998 51.6666 7.73331 50.7666 6.83331L47.2333 3.33331L25.2999 25.2666C24.0666 26.5 23.3333 28.1666 23.3333 30V63.3333C23.3333 65.1014 24.0356 66.7971 25.2859 68.0474C26.5361 69.2976 28.2318 70 29.9999 70H59.9999C62.7666 70 65.1333 68.3333 66.1333 65.9333L76.1999 42.4333C76.4999 41.6666 76.6666 40.8666 76.6666 40V33.3333ZM3.33325 70H16.6666V30H3.33325V70Z" fill="#444444"/>
</svg>
