<svg width="80" height="80" viewBox="0 0 80 80" fill="none" xmlns="http://www.w3.org/2000/svg">
<path d="M40 0C35.6555 0 32.3096 3.6248 32.3096 7.959C32.3096 12.1336 32.2804 15.7861 32.2804 15.7861H24.5557C24.4103 15.7861 24.2696 15.8022 24.1309 15.8252H21.9824V23.3301H58.0176V15.8252H55.8691C55.7304 15.8022 55.5897 15.7861 55.4443 15.7861H47.7198C47.7198 15.7861 47.8076 12.4797 47.8076 7.9834C47.8076 3.80873 44.3446 0 40 0ZM11.6797 7.61233V80H68.3203V7.61233H50.376V12.8565H63.1348V74.7461H16.8702V12.8565H29.624V7.61233H11.6797ZM40 7.70993C41.4234 7.70993 42.5733 8.85527 42.5733 10.2734C42.5733 11.6941 41.4234 12.8417 40 12.8417C38.5767 12.8417 37.4268 11.6941 37.4268 10.2734C37.4268 8.85533 38.5767 7.70993 40 7.70993ZM21.9824 28.418V30.9863H24.5557V28.418H21.9824ZM29.707 28.4668V31.0351H58.0176V28.4668H29.707ZM21.9824 38.1055V40.6738H24.5557V38.1055H21.9824ZM29.707 38.1543V40.7275H58.0176V38.1543H29.707ZM21.9824 47.793V50.3613H24.5557V47.793H21.9824ZM29.707 47.8467V50.415H58.0176V47.8467H29.707ZM21.9824 57.4853V60.0537H24.5557V57.4853H21.9824ZM29.707 57.5391V60.1074H58.0176V57.5391H29.707ZM21.9824 67.1729V69.7412H24.5557V67.1729H21.9824ZM29.707 67.2265V69.7949H58.0176V67.2265H29.707Z" fill="#444444"/>
</svg>
