<svg width="181" height="53" viewBox="0 0 181 53" fill="none" xmlns="http://www.w3.org/2000/svg">
<path d="M23.4435 23.0472C23.3725 22.3311 23.0677 21.7747 22.5291 21.3782C21.9905 20.9817 21.2596 20.7834 20.3363 20.7834C19.7089 20.7834 19.1792 20.8722 18.7472 21.0497C18.3151 21.2214 17.9837 21.4611 17.7528 21.7688C17.5279 22.0766 17.4155 22.4258 17.4155 22.8164C17.4036 23.1419 17.4717 23.426 17.6197 23.6687C17.7736 23.9113 17.9837 24.1214 18.25 24.299C18.5163 24.4706 18.8241 24.6216 19.1733 24.7518C19.5225 24.8761 19.8954 24.9826 20.2919 25.0714L21.9254 25.462C22.7185 25.6396 23.4465 25.8763 24.1094 26.1722C24.7723 26.4682 25.3464 26.8321 25.8317 27.2642C26.317 27.6963 26.6928 28.2053 26.9592 28.7912C27.2314 29.3771 27.3705 30.0489 27.3764 30.8065C27.3705 31.9192 27.0864 32.8839 26.5241 33.7006C25.9678 34.5115 25.1629 35.1418 24.1094 35.5916C23.0618 36.0355 21.7982 36.2575 20.3185 36.2575C18.8507 36.2575 17.5723 36.0326 16.4833 35.5827C15.4002 35.1329 14.5539 34.4671 13.9442 33.5852C13.3406 32.6974 13.0239 31.5996 12.9943 30.2915H16.7141C16.7556 30.9012 16.9302 31.4102 17.2379 31.8185C17.5516 32.221 17.9689 32.5258 18.4897 32.733C19.0165 32.9342 19.6113 33.0348 20.2741 33.0348C20.9252 33.0348 21.4904 32.9401 21.9698 32.7507C22.4551 32.5613 22.831 32.2979 23.0973 31.9606C23.3636 31.6232 23.4968 31.2356 23.4968 30.7976C23.4968 30.3892 23.3755 30.0459 23.1328 29.7678C22.8961 29.4896 22.5469 29.2528 22.0852 29.0575C21.6295 28.8622 21.0702 28.6847 20.4073 28.5249L18.4276 28.0277C16.8946 27.6548 15.6843 27.0719 14.7965 26.2788C13.9087 25.4857 13.4678 24.4174 13.4737 23.0739C13.4678 21.973 13.7608 21.0112 14.3526 20.1886C14.9504 19.3659 15.7701 18.7237 16.8118 18.2621C17.8535 17.8004 19.0372 17.5696 20.3629 17.5696C21.7124 17.5696 22.8902 17.8004 23.8963 18.2621C24.9084 18.7237 25.6955 19.3659 26.2578 20.1886C26.8201 21.0112 27.1101 21.9641 27.1278 23.0472H23.4435ZM29.9621 36V17.8182H37.1354C38.5144 17.8182 39.6892 18.0816 40.6599 18.6083C41.6305 19.1291 42.3704 19.8542 42.8794 20.7834C43.3943 21.7067 43.6517 22.772 43.6517 23.9794C43.6517 25.1868 43.3913 26.2521 42.8705 27.1754C42.3496 28.0987 41.595 28.8178 40.6066 29.3327C39.6241 29.8477 38.4345 30.1051 37.0377 30.1051H32.4656V27.0245H36.4163C37.1561 27.0245 37.7657 26.8973 38.2451 26.6428C38.7304 26.3823 39.0915 26.0243 39.3282 25.5685C39.5709 25.1069 39.6922 24.5772 39.6922 23.9794C39.6922 23.3757 39.5709 22.849 39.3282 22.3991C39.0915 21.9434 38.7304 21.5913 38.2451 21.3427C37.7598 21.0882 37.1443 20.9609 36.3985 20.9609H33.8062V36H29.9621ZM47.1829 36H43.0636L49.3402 17.8182H54.294L60.5618 36H56.4425L51.8881 21.973H51.7461L47.1829 36ZM46.9254 28.8533H56.6555V31.854H46.9254V28.8533ZM62.7502 36V17.8182H69.9235C71.2966 17.8182 72.4685 18.0638 73.4391 18.555C74.4157 19.0404 75.1584 19.7299 75.6674 20.6236C76.1824 21.5114 76.4398 22.556 76.4398 23.7575C76.4398 24.9648 76.1794 26.0036 75.6586 26.8736C75.1377 27.7377 74.3831 28.4006 73.3947 28.8622C72.4122 29.3239 71.2226 29.5547 69.8258 29.5547H65.0229V26.4652H69.2044C69.9383 26.4652 70.5479 26.3646 71.0332 26.1634C71.5185 25.9621 71.8796 25.6603 72.1163 25.2578C72.359 24.8554 72.4803 24.3552 72.4803 23.7575C72.4803 23.1538 72.359 22.6448 72.1163 22.2305C71.8796 21.8162 71.5156 21.5025 71.0243 21.2894C70.539 21.0704 69.9264 20.9609 69.1866 20.9609H66.5943V36H62.7502ZM72.5691 27.7259L77.0879 36H72.8443L68.4231 27.7259H72.5691ZM79.1564 36V17.8182H91.4078V20.9876H83.0005V25.32H90.7775V28.4893H83.0005V32.8306H91.4434V36H79.1564ZM100.25 36V17.8182H107.423C108.802 17.8182 109.977 18.0816 110.948 18.6083C111.919 19.1291 112.658 19.8542 113.167 20.7834C113.682 21.7067 113.94 22.772 113.94 23.9794C113.94 25.1868 113.679 26.2521 113.159 27.1754C112.638 28.0987 111.883 28.8178 110.895 29.3327C109.912 29.8477 108.723 30.1051 107.326 30.1051H102.754V27.0245H106.704C107.444 27.0245 108.054 26.8973 108.533 26.6428C109.019 26.3823 109.38 26.0243 109.616 25.5685C109.859 25.1069 109.98 24.5772 109.98 23.9794C109.98 23.3757 109.859 22.849 109.616 22.3991C109.38 21.9434 109.019 21.5913 108.533 21.3427C108.048 21.0882 107.432 20.9609 106.687 20.9609H104.094V36H100.25ZM117.471 36H113.352L119.628 17.8182H124.582L130.85 36H126.731L122.176 21.973H122.034L117.471 36ZM117.214 28.8533H126.944V31.854H117.214V28.8533ZM133.038 36V17.8182H140.212C141.585 17.8182 142.757 18.0638 143.727 18.555C144.704 19.0404 145.447 19.7299 145.956 20.6236C146.47 21.5114 146.728 22.556 146.728 23.7575C146.728 24.9648 146.467 26.0036 145.947 26.8736C145.426 27.7377 144.671 28.4006 143.683 28.8622C142.7 29.3239 141.511 29.5547 140.114 29.5547H135.311V26.4652H139.492C140.226 26.4652 140.836 26.3646 141.321 26.1634C141.807 25.9621 142.168 25.6603 142.404 25.2578C142.647 24.8554 142.768 24.3552 142.768 23.7575C142.768 23.1538 142.647 22.6448 142.404 22.2305C142.168 21.8162 141.804 21.5025 141.312 21.2894C140.827 21.0704 140.215 20.9609 139.475 20.9609H136.882V36H133.038ZM142.857 27.7259L147.376 36H143.132L138.711 27.7259H142.857ZM148.752 20.9876V17.8182H163.685V20.9876H158.118V36H154.318V20.9876H148.752ZM176.007 23.0472C175.936 22.3311 175.631 21.7747 175.093 21.3782C174.554 20.9817 173.823 20.7834 172.9 20.7834C172.272 20.7834 171.743 20.8722 171.311 21.0497C170.879 21.2214 170.547 21.4611 170.316 21.7688C170.091 22.0766 169.979 22.4258 169.979 22.8164C169.967 23.1419 170.035 23.426 170.183 23.6687C170.337 23.9113 170.547 24.1214 170.813 24.299C171.08 24.4706 171.388 24.6216 171.737 24.7518C172.086 24.8761 172.459 24.9826 172.855 25.0714L174.489 25.462C175.282 25.6396 176.01 25.8763 176.673 26.1722C177.336 26.4682 177.91 26.8321 178.395 27.2642C178.88 27.6963 179.256 28.2053 179.523 28.7912C179.795 29.3771 179.934 30.0489 179.94 30.8065C179.934 31.9192 179.65 32.8839 179.088 33.7006C178.531 34.5115 177.726 35.1418 176.673 35.5916C175.625 36.0355 174.362 36.2575 172.882 36.2575C171.414 36.2575 170.136 36.0326 169.047 35.5827C167.964 35.1329 167.117 34.4671 166.508 33.5852C165.904 32.6974 165.587 31.5996 165.558 30.2915H169.278C169.319 30.9012 169.494 31.4102 169.801 31.8185C170.115 32.221 170.532 32.5258 171.053 32.733C171.58 32.9342 172.175 33.0348 172.838 33.0348C173.489 33.0348 174.054 32.9401 174.533 32.7507C175.019 32.5613 175.394 32.2979 175.661 31.9606C175.927 31.6232 176.06 31.2356 176.06 30.7976C176.06 30.3892 175.939 30.0459 175.696 29.7678C175.46 29.4896 175.11 29.2528 174.649 29.0575C174.193 28.8622 173.634 28.6847 172.971 28.5249L170.991 28.0277C169.458 27.6548 168.248 27.0719 167.36 26.2788C166.472 25.4857 166.031 24.4174 166.037 23.0739C166.031 21.973 166.324 21.0112 166.916 20.1886C167.514 19.3659 168.334 18.7237 169.375 18.2621C170.417 17.8004 171.601 17.5696 172.926 17.5696C174.276 17.5696 175.454 17.8004 176.46 18.2621C177.472 18.7237 178.259 19.3659 178.821 20.1886C179.384 21.0112 179.674 21.9641 179.691 23.0472H176.007Z" fill="white"/>
<rect width="6" height="53" fill="#FFAC12"/>
</svg>
