<svg width="46" height="46" viewBox="0 0 46 46" fill="none" xmlns="http://www.w3.org/2000/svg">
<path d="M42.1666 23C42.1656 17.917 40.1459 13.0424 36.5517 9.44822C32.9574 5.85399 28.0829 3.83433 22.9999 3.83331V7.66665C26.0323 7.66734 28.9964 8.56678 31.5178 10.2513C34.0391 11.9359 36.0047 14.33 37.166 17.1311C37.9367 18.9918 38.3334 20.986 38.3333 23H42.1666ZM3.83325 19.1666V9.58331C3.83325 9.07498 4.03519 8.58747 4.39463 8.22803C4.75408 7.86858 5.24159 7.66665 5.74992 7.66665H15.3333C15.8416 7.66665 16.3291 7.86858 16.6885 8.22803C17.048 8.58747 17.2499 9.07498 17.2499 9.58331V17.25C17.2499 17.7583 17.048 18.2458 16.6885 18.6053C16.3291 18.9647 15.8416 19.1666 15.3333 19.1666H11.4999C11.4999 23.2333 13.1154 27.1334 15.9909 30.009C18.8665 32.8845 22.7666 34.5 26.8333 34.5V30.6666C26.8333 30.1583 27.0352 29.6708 27.3946 29.3114C27.7541 28.9519 28.2416 28.75 28.7499 28.75H36.4166C36.9249 28.75 37.4124 28.9519 37.7719 29.3114C38.1313 29.6708 38.3333 30.1583 38.3333 30.6666V40.25C38.3333 40.7583 38.1313 41.2458 37.7719 41.6053C37.4124 41.9647 36.9249 42.1666 36.4166 42.1666H26.8333C14.1315 42.1666 3.83325 31.8684 3.83325 19.1666Z" fill="#FFAC12"/>
<path d="M33.6241 18.5993C34.2027 19.9943 34.5003 21.4898 34.5 23H31.05C31.0503 21.9428 30.8422 20.8959 30.4377 19.9191C30.0333 18.9423 29.4403 18.0548 28.6928 17.3072C27.9452 16.5597 27.0577 15.9667 26.0809 15.5623C25.1041 15.1578 24.0572 14.9497 23 14.95V11.5C25.2744 11.5001 27.4977 12.1747 29.3888 13.4383C31.2799 14.702 32.7537 16.498 33.6241 18.5993Z" fill="#FFAC12"/>
</svg>
