<svg width="80" height="80" viewBox="0 0 80 80" fill="none" xmlns="http://www.w3.org/2000/svg">
<path d="M39.9986 2.82251C17.9699 2.82251 0.0498047 20.745 0.0498047 42.7738C0.0498047 56.6138 7.05605 69.2726 18.7922 76.6338C19.9597 77.3738 21.5022 77.015 22.2373 75.845C22.9724 74.675 22.6186 73.1325 21.4486 72.4001C17.2223 69.7476 13.7111 66.3026 11.0248 62.3313L13.6461 60.8176C14.8422 60.1263 15.2523 58.5988 14.5611 57.4027C13.8673 56.2039 12.3373 55.7964 11.1461 56.4877L8.52105 58.0026C6.6148 54.0564 5.45098 49.7376 5.13973 45.2351H7.92223C9.30348 45.2351 10.4222 44.1163 10.4222 42.7351C10.4222 41.3538 9.30348 40.2351 7.92223 40.2351H5.15223C5.48348 35.6502 6.69723 31.3051 8.63348 27.3763L11.146 28.8263C11.525 29.0463 11.9555 29.1619 12.3936 29.1613C13.2573 29.1613 14.0973 28.7126 14.5611 27.9113C15.2522 26.7151 14.8423 25.1863 13.6461 24.4963L11.1586 23.0613C13.6673 19.4025 16.8511 16.2413 20.5323 13.7626L21.9398 16.2001C22.4035 17.0038 23.2435 17.4501 24.1072 17.4501C24.5454 17.4506 24.9758 17.335 25.3548 17.1151C26.551 16.4238 26.9611 14.8963 26.2698 13.7001L24.8672 11.2726C28.7211 9.41384 32.9672 8.25259 37.4435 7.92759V11.0426C37.4435 12.4238 38.5622 13.5426 39.9435 13.5426C41.3247 13.5426 42.4435 12.4238 42.4435 11.0426V7.91759C47.021 8.23634 51.3597 9.43251 55.286 11.3512L53.9297 13.6988C53.2385 14.8949 53.6485 16.4238 54.8447 17.1138C55.2237 17.3337 55.6542 17.4493 56.0923 17.4488C56.956 17.4488 57.796 17.0025 58.2597 16.1988L59.6097 13.86C63.2596 16.3451 66.4101 19.4939 68.8972 23.1425L66.556 24.495C65.3598 25.1862 64.9497 26.7138 65.6411 27.9099C66.1047 28.7137 66.9447 29.1599 67.8085 29.1599C68.2335 29.1599 68.6635 29.0524 69.0561 28.8249L71.4097 27.4662C73.331 31.3937 74.5311 35.7336 74.851 40.3125H72.1061C70.7249 40.3125 69.6061 41.4313 69.6061 42.8125C69.6061 44.1938 70.7249 45.3125 72.1061 45.3125H74.8499C74.5336 49.7563 73.3974 54.0187 71.5299 57.915L69.0549 56.4863C67.8611 55.795 66.3274 56.2075 65.6399 57.4013C64.9486 58.5975 65.3586 60.1263 66.5549 60.8163L69.0374 62.25C66.295 66.3313 62.6749 69.8588 58.3062 72.5488C57.13 73.2738 56.7662 74.815 57.4887 75.9888C57.9625 76.755 58.78 77.1775 59.62 77.1775C60.0822 77.1776 60.5354 77.049 60.9288 76.8063C72.84 69.47 79.95 56.745 79.95 42.7725C79.95 20.745 62.0275 2.82251 39.9988 2.82251H39.9986ZM58.4461 34.9788C59.6411 34.2875 60.0511 32.7602 59.3611 31.5639C58.6711 30.3689 57.1411 29.9589 55.9461 30.6502L42.3661 38.4902C41.6411 38.0802 40.8148 37.8264 39.9223 37.8264C37.1661 37.8264 34.9348 40.0601 34.9348 42.8113C34.9348 45.5651 37.1673 47.7988 39.9223 47.7988C42.6786 47.7988 44.9098 45.5651 44.9098 42.8113C44.9098 42.8063 44.9086 42.8001 44.9086 42.795L58.4461 34.9788Z" fill="#444444"/>
</svg>
